<svg width="20" height="20" viewBox="0 0 20 20" fill="none" xmlns="http://www.w3.org/2000/svg">
<path d="M6.8439 11.3749H3.29181C2.82119 11.3776 2.37075 11.5664 2.03891 11.9001C1.70707 12.2339 1.52081 12.6854 1.52081 13.156V16.7081C1.52057 16.9407 1.56622 17.1711 1.65513 17.3861C1.74405 17.6011 1.87449 17.7964 2.03899 17.9609C2.20349 18.1254 2.39882 18.2559 2.6138 18.3448C2.82877 18.4337 3.05918 18.4793 3.29181 18.4791H6.8439C7.31459 18.4796 7.76628 18.2934 8.09997 17.9615C8.43366 17.6295 8.62212 17.1788 8.62406 16.7081V13.156C8.6243 12.9222 8.57842 12.6906 8.48905 12.4745C8.39967 12.2584 8.26855 12.062 8.1032 11.8967C7.93785 11.7313 7.74151 11.6002 7.52542 11.5109C7.30933 11.4215 7.07774 11.3756 6.8439 11.3758M6.8439 1.52075H3.29181C3.05918 1.52051 2.82877 1.56616 2.6138 1.65507C2.39882 1.74399 2.20349 1.87443 2.03899 2.03893C1.87449 2.20343 1.74405 2.39876 1.65513 2.61374C1.56622 2.82871 1.52057 3.05911 1.52081 3.29175V6.84384C1.52032 7.31453 1.70646 7.76622 2.03843 8.09991C2.3704 8.4336 2.82112 8.62206 3.29181 8.624H6.8439C7.07774 8.62424 7.30933 8.57836 7.52542 8.48899C7.74151 8.39961 7.93785 8.26849 8.1032 8.10314C8.26855 7.93779 8.39967 7.74145 8.48905 7.52536C8.57842 7.30927 8.6243 7.07768 8.62406 6.84384V3.29175C8.62212 2.82106 8.43366 2.37034 8.09997 2.03837C7.76628 1.7064 7.31459 1.52026 6.8439 1.52075ZM16.7081 1.52075H13.1561C12.6854 1.52026 12.2337 1.7064 11.9 2.03837C11.5663 2.37034 11.3778 2.82106 11.3759 3.29175V6.84384C11.3761 7.31589 11.5638 7.76854 11.8976 8.10234C12.2314 8.43613 12.684 8.62376 13.1561 8.624H16.7081C17.1788 8.62206 17.6296 8.4336 17.9615 8.09991C18.2935 7.76622 18.4796 7.31453 18.4791 6.84384V3.29175C18.4794 3.05911 18.4337 2.82871 18.3448 2.61374C18.2559 2.39876 18.1255 2.20343 17.961 2.03893C17.7965 1.87443 17.6011 1.74399 17.3862 1.65507C17.1712 1.56616 16.9408 1.52051 16.7081 1.52075ZM14.9271 11.3749C13.985 11.3749 13.0815 11.7492 12.4154 12.4153C11.7492 13.0814 11.375 13.9849 11.375 14.927C11.375 15.8691 11.7492 16.7726 12.4154 17.4387C13.0815 18.1049 13.985 18.4791 14.9271 18.4791C15.8691 18.4791 16.7726 18.1049 17.4388 17.4387C18.1049 16.7726 18.4791 15.8691 18.4791 14.927C18.4791 13.9849 18.1049 13.0814 17.4388 12.4153C16.7726 11.7492 15.8691 11.3749 14.9271 11.3749Z" stroke="#605E5F" stroke-width="1.375" stroke-linecap="round" stroke-linejoin="round"/>
</svg>
