<svg width="22" height="22" viewBox="0 0 22 22" fill="none" xmlns="http://www.w3.org/2000/svg">
<path d="M10.0834 4.29V7.84667C10.0826 8.28963 9.95092 8.72249 9.7048 9.09079C9.45867 9.45908 9.10912 9.74637 8.70013 9.9165C8.42959 10.0283 8.13945 10.0851 7.84671 10.0833H4.29005C3.69844 10.0809 3.13188 9.84419 2.71441 9.425C2.29693 9.0058 2.06254 8.43828 2.06255 7.84667V4.29917C2.06254 3.70755 2.29693 3.14003 2.71441 2.72084C3.13188 2.30164 3.69844 2.06492 4.29005 2.0625H7.84671C8.43833 2.0625 9.00585 2.29688 9.42504 2.71436C9.84424 3.13184 10.081 3.69839 10.0834 4.29ZM19.9375 4.29917V7.84667C19.9395 8.13956 19.8829 8.4299 19.7712 8.70064C19.6594 8.97139 19.4947 9.21709 19.2867 9.42333C19.0819 9.63381 18.8366 9.80076 18.5657 9.91417C18.2948 10.0276 18.0037 10.0851 17.71 10.0833H14.1534C13.7115 10.0828 13.2795 9.95182 12.9117 9.70691C12.5438 9.462 12.2564 9.114 12.0854 8.7065C11.9721 8.4341 11.9147 8.14169 11.9167 7.84667V4.29917C11.916 4.00562 11.974 3.7149 12.0873 3.44412C12.2007 3.17334 12.3671 2.92798 12.5767 2.7225C12.7828 2.51369 13.0283 2.34784 13.2989 2.23455C13.5696 2.12126 13.86 2.06278 14.1534 2.0625H17.71C18.3017 2.06492 18.8682 2.30164 19.2857 2.72084C19.7032 3.14003 19.9376 3.70755 19.9375 4.29917ZM10.0834 14.1625V17.71C10.081 18.3016 9.84424 18.8682 9.42504 19.2856C9.00585 19.7031 8.43833 19.9375 7.84671 19.9375H4.29005C3.69935 19.9363 3.1329 19.7025 2.71338 19.2867C2.5054 19.0804 2.3407 18.8347 2.22894 18.564C2.11718 18.2932 2.06061 18.0029 2.06255 17.71V14.1625C2.06061 13.8696 2.11718 13.5793 2.22894 13.3085C2.3407 13.0378 2.5054 12.7921 2.71338 12.5858C3.13104 12.1649 3.69714 11.9247 4.29005 11.9167H7.84671C8.44001 11.9215 9.0075 12.1599 9.42618 12.5803C9.84486 13.0007 10.081 13.5692 10.0834 14.1625ZM19.9375 15.9317C19.9357 16.7232 19.6995 17.4964 19.2586 18.1537C18.8178 18.8111 18.192 19.3231 17.4604 19.6252C16.7289 19.9272 15.9242 20.0058 15.148 19.8509C14.3718 19.696 13.6588 19.3147 13.0992 18.755C12.5395 18.1954 12.1582 17.4824 12.0033 16.7062C11.8485 15.93 11.927 15.1254 12.2291 14.3938C12.5311 13.6622 13.0431 13.0365 13.7005 12.5956C14.3578 12.1547 15.1311 11.9185 15.9225 11.9167C16.7168 11.9189 17.4927 12.1555 18.153 12.597C18.8133 13.0384 19.3285 13.665 19.6341 14.3981C19.8358 14.8839 19.9385 15.4055 19.9375 15.9317Z" fill="#025964"/>
</svg>
