<svg width="22" height="22" viewBox="0 0 22 22" fill="none" xmlns="http://www.w3.org/2000/svg">
<path d="M19.9375 11.6875C20.1198 11.6875 20.2947 11.6151 20.4236 11.4861C20.5526 11.3572 20.625 11.1823 20.625 11C20.625 10.8177 20.5526 10.6428 20.4236 10.5139C20.2947 10.3849 20.1198 10.3125 19.9375 10.3125H17.875V8.25H19.9375C20.1198 8.25 20.2947 8.17757 20.4236 8.04864C20.5526 7.9197 20.625 7.74484 20.625 7.5625C20.625 7.38016 20.5526 7.2053 20.4236 7.07636C20.2947 6.94743 20.1198 6.875 19.9375 6.875H17.875C17.875 6.14565 17.5853 5.44618 17.0695 4.93046C16.5538 4.41473 15.8543 4.125 15.125 4.125V2.0625C15.125 1.88016 15.0526 1.7053 14.9236 1.57636C14.7947 1.44743 14.6198 1.375 14.4375 1.375C14.2552 1.375 14.0803 1.44743 13.9514 1.57636C13.8224 1.7053 13.75 1.88016 13.75 2.0625V4.125H11.6875V2.0625C11.6875 1.88016 11.6151 1.7053 11.4861 1.57636C11.3572 1.44743 11.1823 1.375 11 1.375C10.8177 1.375 10.6428 1.44743 10.5139 1.57636C10.3849 1.7053 10.3125 1.88016 10.3125 2.0625V4.125H8.25V2.0625C8.25 1.88016 8.17757 1.7053 8.04864 1.57636C7.9197 1.44743 7.74484 1.375 7.5625 1.375C7.38016 1.375 7.2053 1.44743 7.07636 1.57636C6.94743 1.7053 6.875 1.88016 6.875 2.0625V4.125C6.14565 4.125 5.44618 4.41473 4.93046 4.93046C4.41473 5.44618 4.125 6.14565 4.125 6.875H2.0625C1.88016 6.875 1.7053 6.94743 1.57636 7.07636C1.44743 7.2053 1.375 7.38016 1.375 7.5625C1.375 7.74484 1.44743 7.9197 1.57636 8.04864C1.7053 8.17757 1.88016 8.25 2.0625 8.25H4.125V10.3125H2.0625C1.88016 10.3125 1.7053 10.3849 1.57636 10.5139C1.44743 10.6428 1.375 10.8177 1.375 11C1.375 11.1823 1.44743 11.3572 1.57636 11.4861C1.7053 11.6151 1.88016 11.6875 2.0625 11.6875H4.125V13.75H2.0625C1.88016 13.75 1.7053 13.8224 1.57636 13.9514C1.44743 14.0803 1.375 14.2552 1.375 14.4375C1.375 14.6198 1.44743 14.7947 1.57636 14.9236C1.7053 15.0526 1.88016 15.125 2.0625 15.125H4.125C4.125 15.8543 4.41473 16.5538 4.93046 17.0695C5.44618 17.5853 6.14565 17.875 6.875 17.875V19.9375C6.875 20.1198 6.94743 20.2947 7.07636 20.4236C7.2053 20.5526 7.38016 20.625 7.5625 20.625C7.74484 20.625 7.9197 20.5526 8.04864 20.4236C8.17757 20.2947 8.25 20.1198 8.25 19.9375V17.875H10.3125V19.9375C10.3125 20.1198 10.3849 20.2947 10.5139 20.4236C10.6428 20.5526 10.8177 20.625 11 20.625C11.1823 20.625 11.3572 20.5526 11.4861 20.4236C11.6151 20.2947 11.6875 20.1198 11.6875 19.9375V17.875H13.75V19.9375C13.75 20.1198 13.8224 20.2947 13.9514 20.4236C14.0803 20.5526 14.2552 20.625 14.4375 20.625C14.6198 20.625 14.7947 20.5526 14.9236 20.4236C15.0526 20.2947 15.125 20.1198 15.125 19.9375V17.875C15.8543 17.875 16.5538 17.5853 17.0695 17.0695C17.5853 16.5538 17.875 15.8543 17.875 15.125H19.9375C20.1198 15.125 20.2947 15.0526 20.4236 14.9236C20.5526 14.7947 20.625 14.6198 20.625 14.4375C20.625 14.2552 20.5526 14.0803 20.4236 13.9514C20.2947 13.8224 20.1198 13.75 19.9375 13.75H17.875V11.6875H19.9375ZM11 14.4375C10.0883 14.4375 9.21398 14.0753 8.56932 13.4307C7.92466 12.786 7.5625 11.9117 7.5625 11C7.5625 9.10388 9.10388 7.5625 11 7.5625C12.8961 7.5625 14.4375 9.10388 14.4375 11C14.4375 12.8961 12.8961 14.4375 11 14.4375ZM11 8.9375C9.86287 8.9375 8.9375 9.86287 8.9375 11C8.9375 12.1371 9.86287 13.0625 11 13.0625C12.1371 13.0625 13.0625 12.1371 13.0625 11C13.0625 9.86287 12.1371 8.9375 11 8.9375Z" fill="#025964"/>
</svg>
