<svg width="22" height="22" viewBox="0 0 22 22" fill="none" xmlns="http://www.w3.org/2000/svg">
<g clip-path="url(#clip0_442_61)">
<path d="M4.27776 3.66666H14.0555V9.65555H15.2778V3.66666C15.2778 3.34251 15.149 3.03163 14.9198 2.80242C14.6906 2.57321 14.3797 2.44444 14.0555 2.44444H4.27776C3.95361 2.44444 3.64273 2.57321 3.41352 2.80242C3.18431 3.03163 3.05554 3.34251 3.05554 3.66666V18.3333C3.05554 18.6575 3.18431 18.9684 3.41352 19.1976C3.64273 19.4268 3.95361 19.5556 4.27776 19.5556H14.0555C14.3797 19.5556 14.6906 19.4268 14.9198 19.1976C15.149 18.9684 15.2778 18.6575 15.2778 18.3333H4.27776V3.66666Z" fill="#605E5F"/>
<path d="M17.2088 10.56C17.0919 10.4599 16.9415 10.4076 16.7877 10.4135C16.6339 10.4195 16.488 10.4832 16.3791 10.592C16.2703 10.7009 16.2065 10.8468 16.2006 11.0006C16.1947 11.1544 16.247 11.3048 16.3471 11.4217L18.4127 13.4444H9.55154C9.38946 13.4444 9.23403 13.5088 9.11942 13.6234C9.00481 13.738 8.94043 13.8935 8.94043 14.0556C8.94043 14.2176 9.00481 14.3731 9.11942 14.4877C9.23403 14.6023 9.38946 14.6667 9.55154 14.6667H18.4127L16.3471 16.7811C16.2831 16.8359 16.2312 16.9033 16.1945 16.9791C16.1578 17.0549 16.1372 17.1375 16.1339 17.2217C16.1307 17.3059 16.1449 17.3898 16.1756 17.4682C16.2063 17.5466 16.2529 17.6178 16.3125 17.6774C16.372 17.737 16.4433 17.7836 16.5217 17.8143C16.6001 17.845 16.684 17.8592 16.7682 17.8559C16.8523 17.8527 16.9349 17.8321 17.0107 17.7954C17.0866 17.7587 17.154 17.7068 17.2088 17.6428L20.7777 14.0983L17.2088 10.56Z" fill="#605E5F"/>
</g>
<defs>
<clipPath id="clip0_442_61">
<rect width="22" height="22" fill="white"/>
</clipPath>
</defs>
</svg>
