<svg width="22" height="22" viewBox="0 0 22 22" fill="none" xmlns="http://www.w3.org/2000/svg">
<path d="M6.01562 16.1562H7.73438C7.82891 16.1562 7.90625 16.0789 7.90625 15.9844V6.01562C7.90625 5.92109 7.82891 5.84375 7.73438 5.84375H6.01562C5.92109 5.84375 5.84375 5.92109 5.84375 6.01562V15.9844C5.84375 16.0789 5.92109 16.1562 6.01562 16.1562ZM10.1406 10.1406H11.8594C11.9539 10.1406 12.0312 10.0633 12.0312 9.96875V6.01562C12.0312 5.92109 11.9539 5.84375 11.8594 5.84375H10.1406C10.0461 5.84375 9.96875 5.92109 9.96875 6.01562V9.96875C9.96875 10.0633 10.0461 10.1406 10.1406 10.1406ZM14.2656 11.6875H15.9844C16.0789 11.6875 16.1562 11.6102 16.1562 11.5156V6.01562C16.1562 5.92109 16.0789 5.84375 15.9844 5.84375H14.2656C14.1711 5.84375 14.0938 5.92109 14.0938 6.01562V11.5156C14.0938 11.6102 14.1711 11.6875 14.2656 11.6875ZM18.9062 2.40625H3.09375C2.71348 2.40625 2.40625 2.71348 2.40625 3.09375V18.9062C2.40625 19.2865 2.71348 19.5938 3.09375 19.5938H18.9062C19.2865 19.5938 19.5938 19.2865 19.5938 18.9062V3.09375C19.5938 2.71348 19.2865 2.40625 18.9062 2.40625ZM18.0469 18.0469H3.95312V3.95312H18.0469V18.0469Z" fill="#605E5F"/>
</svg>
