<svg width="32" height="32" viewBox="0 0 32 32" fill="none" xmlns="http://www.w3.org/2000/svg">
<g clip-path="url(#clip0_39_6183)">
<path fill-rule="evenodd" clip-rule="evenodd" d="M18.745 7.21344C18.8488 6.9477 19.0304 6.7195 19.2661 6.55874C19.5018 6.39798 19.7805 6.31215 20.0658 6.3125H24.9241C26.839 6.3125 28.2041 8.16927 27.6333 9.99698L26.068 15.0046C25.9778 15.2929 25.7979 15.5449 25.5546 15.724C25.3112 15.903 25.0171 15.9997 24.715 16H17.8861C16.8826 16 16.3724 16.9082 16.0697 17.8164C15.8348 18.5212 14.1403 22.8741 13.3943 24.7866C13.2906 25.0523 13.1089 25.2805 12.8733 25.4413C12.6376 25.602 12.3589 25.6878 12.0736 25.6875H7.21531C5.30042 25.6875 3.93529 23.8307 4.50604 22.003L6.07138 16.9954C6.16164 16.7069 6.34163 16.4548 6.58514 16.2758C6.82865 16.0968 7.12296 16.0001 7.42521 16H14.2533C15.2567 16 15.767 15.0918 16.0697 14.1836C16.3046 13.4788 17.9991 9.12591 18.745 7.21344Z" fill="#6C5CE7"/>
<path d="M19.5411 17.5137C18.9098 17.5137 18.3455 17.9052 18.1235 18.4961L15.9059 24.4096C15.8523 24.5527 15.8342 24.7067 15.8531 24.8584C15.872 25.0101 15.9274 25.155 16.0145 25.2806C16.1016 25.4062 16.2179 25.5088 16.3534 25.5797C16.4888 25.6506 16.6394 25.6876 16.7923 25.6875H22.4918C23.2623 25.6876 24.0144 25.4525 24.6477 25.0136C25.281 24.5748 25.7653 23.9531 26.0358 23.2317L26.9811 20.7089C27.5608 19.163 26.4184 17.5137 24.7667 17.5137H19.5411ZM9.9505 6.3125C9.18016 6.31259 8.42819 6.54775 7.79506 6.98658C7.16192 7.4254 6.67778 8.04698 6.4073 8.76828L5.46196 11.2911C4.88233 12.837 6.02545 14.4863 7.67636 14.4863H12.902C13.5333 14.4863 14.0984 14.0948 14.3196 13.5039L16.5372 7.59044C16.5908 7.44728 16.6089 7.29326 16.59 7.14156C16.5711 6.98987 16.5157 6.84501 16.4286 6.7194C16.3414 6.59379 16.2252 6.49116 16.0897 6.42029C15.9543 6.34943 15.8037 6.31244 15.6508 6.3125H9.9505ZM33.3862 21.1957V18.7496L38.0628 13.4877L38.041 13.4659C37.6083 13.5095 37.5647 13.5095 37.1102 13.5095H33.4726V11.019H41.5923V13.4651L36.8939 18.727L36.9157 18.748C37.3484 18.7052 37.413 18.7052 37.8683 18.7052H41.6351V21.1949H33.3862V21.1957ZM47.9352 21.4339C44.8166 21.4121 43.1068 19.4641 43.1068 16.7136V11.0198H46.0938V16.4973C46.0938 17.9262 46.7226 18.8142 47.9344 18.836C49.2559 18.8578 49.8186 17.9698 49.8186 16.5191V11.019H52.8064V16.7346C52.8064 19.3543 50.793 21.4549 47.9352 21.4331V21.4339ZM72.1281 21.4339C68.9014 21.4339 66.628 19.1387 66.628 16.1074C66.628 13.076 68.9014 10.7817 72.1273 10.7817C75.3532 10.7817 77.6274 13.076 77.6274 16.1074C77.6274 19.1387 75.354 21.4339 72.1281 21.4339ZM72.1281 18.857C73.6216 18.857 74.6824 17.7316 74.6824 16.1074C74.6824 14.4839 73.6216 13.3577 72.1273 13.3577C70.6338 13.3577 69.5722 14.4839 69.5722 16.1074C69.5722 17.7316 70.6338 18.8578 72.1273 18.8578L72.1281 18.857ZM85.3967 21.1957L81.9318 15.6093V21.1957H78.9449V6.42956H81.9318V14.9384L85.1796 11.0198H88.6445L84.985 15.2202L88.8608 21.1957H85.3967ZM94.595 21.4339C91.4773 21.4121 89.7666 19.4641 89.7666 16.7136V11.0198H92.7552V16.4973C92.7552 17.9262 93.3825 18.8142 94.595 18.836C95.9158 18.8578 96.4792 17.9698 96.4792 16.5191V11.019H99.467V16.7346C99.467 19.3543 97.4536 21.4549 94.595 21.4331V21.4339Z" fill="#6C5CE7"/>
</g>
<defs>
<clipPath id="clip0_39_6183">
<rect width="32" height="32" fill="white"/>
</clipPath>
</defs>
</svg>
