<svg width="54" height="54" viewBox="0 0 54 54" fill="none" xmlns="http://www.w3.org/2000/svg">
<circle cx="27" cy="27" r="27" fill="#D9D9D9"/>
<path fill-rule="evenodd" clip-rule="evenodd" d="M9 47.125V46.5536C9 44.2602 9.91105 42.0607 11.5327 40.4391C13.1544 38.8174 15.3538 37.9063 17.6472 37.9063H18.4336C18.8586 37.9079 19.2809 37.9748 19.6857 38.1046L21.6826 38.7572C25.054 39.8578 28.688 39.8578 32.0593 38.7572L34.0562 38.1046C34.4621 37.974 34.8802 37.9079 35.3107 37.9063H36.0947C38.3881 37.9063 40.5875 38.8174 42.2092 40.4391C43.8309 42.0607 44.7419 44.2602 44.7419 46.5536V47.353C40.0333 51.461 33.886 53.9616 27.1554 53.9996C27.0884 53.9998 27.0214 53.9999 26.9544 54C20.0571 53.9886 13.7663 51.3909 9 47.125ZM20.7564 18.5327C22.3781 16.911 24.5776 16 26.871 16C29.1643 16 31.3638 16.911 32.9855 18.5327C34.6072 20.1544 35.5182 22.3538 35.5182 24.6472C35.5182 26.9406 34.6072 29.1401 32.9855 30.7618C31.3638 32.3834 29.1643 33.2945 26.871 33.2945C24.5776 33.2945 22.3781 32.3834 20.7564 30.7618C19.1348 29.1401 18.2237 26.9406 18.2237 24.6472C18.2237 22.3538 19.1348 20.1544 20.7564 18.5327Z" fill="#313031"/>
</svg>
