<svg width="119" height="24" viewBox="0 0 119 24" fill="none" xmlns="http://www.w3.org/2000/svg">
<path fill-rule="evenodd" clip-rule="evenodd" d="M18.064 1.116C18.1925 0.78683 18.4175 0.504159 18.7094 0.305022C19.0013 0.105885 19.3466 -0.00043136 19.7 1.31541e-06H25.718C28.09 1.31541e-06 29.781 2.3 29.074 4.564L27.135 10.767C27.0232 11.1241 26.8004 11.4363 26.499 11.6581C26.1976 11.8798 25.8332 11.9996 25.459 12H17C15.757 12 15.125 13.125 14.75 14.25C14.459 15.123 12.36 20.515 11.436 22.884C11.3075 23.2132 11.0825 23.4958 10.7906 23.695C10.4986 23.8941 10.1534 24.0004 9.79999 24H3.78199C1.40999 24 -0.281007 21.7 0.425993 19.436L2.36499 13.233C2.4768 12.8757 2.69976 12.5634 3.0014 12.3416C3.30304 12.1199 3.6676 12.0002 4.04199 12H12.5C13.743 12 14.375 10.875 14.75 9.75C15.041 8.877 17.14 3.485 18.064 1.116Z" fill="#025964"/>
<path d="M19.05 13.875C18.268 13.875 17.569 14.36 17.294 15.092L14.547 22.417C14.4806 22.5943 14.4581 22.7851 14.4816 22.973C14.505 23.1609 14.5736 23.3404 14.6815 23.496C14.7895 23.6516 14.9335 23.7787 15.1013 23.8665C15.269 23.9543 15.4556 24.0001 15.645 24H22.705C23.6594 24.0001 24.5911 23.7089 25.3755 23.1653C26.16 22.6217 26.7599 21.8516 27.095 20.958L28.266 17.833C28.984 15.918 27.569 13.875 25.523 13.875H19.05ZM7.16997 7.83928e-08C6.21574 0.000109222 5.28427 0.291411 4.5 0.834986C3.71573 1.37856 3.11601 2.14852 2.78097 3.042L1.60997 6.167C0.891972 8.082 2.30797 10.125 4.35297 10.125H10.826C11.608 10.125 12.308 9.64 12.582 8.908L15.329 1.583C15.3954 1.40566 15.4178 1.21488 15.3944 1.02697C15.371 0.839061 15.3023 0.659629 15.1944 0.504032C15.0865 0.348435 14.9425 0.221306 14.7747 0.133526C14.6069 0.0457468 14.4203 -6.91747e-05 14.231 7.83928e-08H7.16997ZM36.2 18.436V15.406L41.993 8.888L41.966 8.861C41.43 8.915 41.376 8.915 40.813 8.915H36.307V5.83H46.365V8.86L40.545 15.378L40.572 15.404C41.108 15.351 41.188 15.351 41.752 15.351H46.418V18.435H36.2V18.436ZM54.222 18.731C50.359 18.704 48.241 16.291 48.241 12.884V5.831H51.941V12.616C51.941 14.386 52.72 15.486 54.221 15.513C55.858 15.54 56.555 14.44 56.555 12.643V5.83H60.256V12.91C60.256 16.155 57.762 18.757 54.222 18.73V18.731ZM84.19 18.731C80.193 18.731 77.377 15.888 77.377 12.133C77.377 8.378 80.193 5.536 84.189 5.536C88.185 5.536 91.002 8.378 91.002 12.133C91.002 15.888 88.186 18.731 84.19 18.731ZM84.19 15.539C86.04 15.539 87.354 14.145 87.354 12.133C87.354 10.122 86.04 8.727 84.189 8.727C82.339 8.727 81.024 10.122 81.024 12.133C81.024 14.145 82.339 15.54 84.189 15.54L84.19 15.539ZM100.626 18.436L96.334 11.516V18.436H92.634V0.145H96.334V10.685L100.357 5.831H104.649L100.116 11.034L104.917 18.436H100.626ZM112.02 18.731C108.158 18.704 106.039 16.291 106.039 12.884V5.831H109.741V12.616C109.741 14.386 110.518 15.486 112.02 15.513C113.656 15.54 114.354 14.44 114.354 12.643V5.83H118.055V12.91C118.055 16.155 115.561 18.757 112.02 18.73V18.731Z" fill="#025964"/>
<path fill-rule="evenodd" clip-rule="evenodd" d="M75.74 0.119995H71.818V6.095C70.9013 5.71758 69.9184 5.52718 68.927 5.535C64.931 5.535 62.114 8.378 62.114 12.133C62.114 15.888 64.931 18.731 68.927 18.731C72.885 18.731 75.686 15.941 75.738 12.239L75.74 0.119995ZM72.092 12.133C72.092 14.145 70.778 15.54 68.927 15.54C67.077 15.54 65.762 14.145 65.762 12.133C65.762 10.122 67.076 8.727 68.927 8.727C70.777 8.727 72.092 10.122 72.092 12.133Z" fill="#025964"/>
</svg>
