<svg width="120" height="24" viewBox="0 0 120 24" fill="none" xmlns="http://www.w3.org/2000/svg">
<g clip-path="url(#clip0_21_182)">
<path fill-rule="evenodd" clip-rule="evenodd" d="M19.064 1.116C19.1925 0.78683 19.4175 0.504159 19.7094 0.305022C20.0013 0.105885 20.3466 -0.00043136 20.7 1.31541e-06H26.718C29.09 1.31541e-06 30.781 2.3 30.074 4.564L28.135 10.767C28.0232 11.1241 27.8004 11.4363 27.499 11.6581C27.1976 11.8798 26.8332 11.9996 26.459 12H18C16.757 12 16.125 13.125 15.75 14.25C15.459 15.123 13.36 20.515 12.436 22.884C12.3075 23.2132 12.0825 23.4958 11.7906 23.695C11.4986 23.8941 11.1534 24.0004 10.8 24H4.78199C2.40999 24 0.718993 21.7 1.42599 19.436L3.36499 13.233C3.4768 12.8757 3.69976 12.5634 4.0014 12.3416C4.30304 12.1199 4.6676 12.0002 5.04199 12H13.5C14.743 12 15.375 10.875 15.75 9.75C16.041 8.877 18.14 3.485 19.064 1.116Z" fill="#38BDF8"/>
<path d="M20.05 13.875C19.268 13.875 18.569 14.36 18.294 15.092L15.547 22.417C15.4806 22.5943 15.4581 22.7851 15.4816 22.973C15.505 23.1609 15.5736 23.3404 15.6815 23.496C15.7895 23.6516 15.9335 23.7787 16.1013 23.8665C16.269 23.9543 16.4556 24.0001 16.645 24H23.705C24.6594 24.0001 25.5911 23.7089 26.3755 23.1653C27.16 22.6217 27.7599 21.8516 28.095 20.958L29.266 17.833C29.984 15.918 28.569 13.875 26.523 13.875H20.05ZM8.16997 7.83928e-08C7.21574 0.000109222 6.28427 0.291411 5.5 0.834986C4.71573 1.37856 4.11601 2.14852 3.78097 3.042L2.60997 6.167C1.89197 8.082 3.30797 10.125 5.35297 10.125H11.826C12.608 10.125 13.308 9.64 13.582 8.908L16.329 1.583C16.3954 1.40566 16.4178 1.21488 16.3944 1.02697C16.371 0.839061 16.3023 0.659629 16.1944 0.504032C16.0865 0.348435 15.9425 0.221306 15.7747 0.133526C15.6069 0.0457468 15.4203 -6.91747e-05 15.231 7.83928e-08H8.16997ZM37.2 18.436V15.406L42.993 8.888L42.966 8.861C42.43 8.915 42.376 8.915 41.813 8.915H37.307V5.83H47.365V8.86L41.545 15.378L41.572 15.404C42.108 15.351 42.188 15.351 42.752 15.351H47.418V18.435H37.2V18.436ZM55.222 18.731C51.359 18.704 49.241 16.291 49.241 12.884V5.831H52.941V12.616C52.941 14.386 53.72 15.486 55.221 15.513C56.858 15.54 57.555 14.44 57.555 12.643V5.83H61.256V12.91C61.256 16.155 58.762 18.757 55.222 18.73V18.731ZM85.19 18.731C81.193 18.731 78.377 15.888 78.377 12.133C78.377 8.378 81.193 5.536 85.189 5.536C89.185 5.536 92.002 8.378 92.002 12.133C92.002 15.888 89.186 18.731 85.19 18.731ZM85.19 15.539C87.04 15.539 88.354 14.145 88.354 12.133C88.354 10.122 87.04 8.727 85.189 8.727C83.339 8.727 82.024 10.122 82.024 12.133C82.024 14.145 83.339 15.54 85.189 15.54L85.19 15.539ZM101.626 18.436L97.334 11.516V18.436H93.634V0.145H97.334V10.685L101.357 5.831H105.649L101.116 11.034L105.917 18.436H101.626ZM113.02 18.731C109.158 18.704 107.039 16.291 107.039 12.884V5.831H110.741V12.616C110.741 14.386 111.518 15.486 113.02 15.513C114.656 15.54 115.354 14.44 115.354 12.643V5.83H119.055V12.91C119.055 16.155 116.561 18.757 113.02 18.73V18.731Z" fill="#38BDF8"/>
<path fill-rule="evenodd" clip-rule="evenodd" d="M76.74 0.119995H72.818V6.095C71.9013 5.71758 70.9184 5.52718 69.927 5.535C65.931 5.535 63.114 8.378 63.114 12.133C63.114 15.888 65.931 18.731 69.927 18.731C73.885 18.731 76.686 15.941 76.738 12.239L76.74 0.119995ZM73.092 12.133C73.092 14.145 71.778 15.54 69.927 15.54C68.077 15.54 66.762 14.145 66.762 12.133C66.762 10.122 68.076 8.727 69.927 8.727C71.777 8.727 73.092 10.122 73.092 12.133Z" fill="#38BDF8"/>
</g>
<defs>
<clipPath id="clip0_21_182">
<rect width="120" height="24" fill="white"/>
</clipPath>
</defs>
</svg>
